# xmcd
#
# Track frame offsets: 
#        150
#        12479
#        29953
#        42895
#        59947
#        73244
#        84897
#        104543
#        117283
#        131851
#        144977
#        158991
#        177552
#        191094
#        205419
#        220115
#        232438
#        254124
#        268588
#        280976
#
# Disc length: 3913 seconds
#
# Revision: 0
# Processed by: cddbd v1.5.2PL0 Copyright (c) Steve Scherf et al.
# Submitted via: ExactAudioCopyFreeDBPlugin 1.0
#
DISCID=520f4714
DTITLE=Various Artist - Lost Deep Soul Treasures [S.O.S. Sounds of So
DTITLE=ul]
DYEAR=2013
DGENRE=Soul
TTITLE0=The Cravens - Look Up and Laugh
TTITLE1=Jimmy (Preacher) Robinson - So Confused
TTITLE2=Little Joe Cook - How Do You Say Goodbye
TTITLE3=Dee Dee Warwick - Who Will the Next Fool Be
TTITLE4=L.L. Milton - That's All I Need
TTITLE5=Judy Clay - I Thought I Had Gotten Over You
TTITLE6=Freddie Waters - It Tears Me Up
TTITLE7=Clydie King - One of Those Good for Crying Over You Days
TTITLE8=Billy Lamont - Please Don't Leave
TTITLE9=Alvin Robinson - Tuned In Turned On
TTITLE10=Rene Bailey - I'm Just Gonna Be Missing You
TTITLE11=Don Covay - We Can't Make It No More
TTITLE12=Freddie Lowe - I've Got to Find Someone to Love
TTITLE13=Willie and His People - A Weak Man Cries
TTITLE14=Lea Roberts - Prove It
TTITLE15=Junior Parker - If I Had Your Love
TTITLE16=Mel Starr - That Means So Much to Me
TTITLE17=J.B. and The Vikings - I've Got Dreams to Remember
TTITLE18=Little Bob - Just Got to Forget You
TTITLE19=Roscoe Shelton - Tonight's My Night
EXTD=
EXTT0=
EXTT1=
EXTT2=
EXTT3=
EXTT4=
EXTT5=
EXTT6=
EXTT7=
EXTT8=
EXTT9=
EXTT10=
EXTT11=
EXTT12=
EXTT13=
EXTT14=
EXTT15=
EXTT16=
EXTT17=
EXTT18=
EXTT19=
PLAYORDER=
